<mxfile host="www.draw.io" modified="2019-11-11T11:24:05.838Z" agent="Mozilla/5.0 (Windows NT 10.0; Win64; x64) AppleWebKit/537.36 (KHTML, like Gecko) Chrome/78.0.3904.87 Safari/537.36" etag="XYIPq1jopZTTRNVDiBti" version="12.2.3" type="github" pages="1">
  <diagram id="wZMmN6AmNvswwWao5NQX" name="Page-1">
    <mxGraphModel dx="1082" dy="509" grid="1" gridSize="10" guides="1" tooltips="1" connect="1" arrows="1" fold="1" page="1" pageScale="1" pageWidth="827" pageHeight="1169" math="0" shadow="0">
      <root>
        <mxCell id="0"/>
        <mxCell id="1" parent="0"/>
        <mxCell id="1wR2ykt7FUWzchbB2Hr0-18" value="" style="rounded=0;whiteSpace=wrap;html=1;shadow=0;comic=0;glass=0;strokeWidth=2;" parent="1" vertex="1">
          <mxGeometry x="70" y="30" width="490" height="500" as="geometry"/>
        </mxCell>
        <mxCell id="1wR2ykt7FUWzchbB2Hr0-13" style="edgeStyle=orthogonalEdgeStyle;rounded=0;orthogonalLoop=1;jettySize=auto;html=1;exitX=0.5;exitY=1;exitDx=0;exitDy=0;entryX=0.167;entryY=0.025;entryDx=0;entryDy=0;entryPerimeter=0;strokeWidth=2;" parent="1" source="1wR2ykt7FUWzchbB2Hr0-1" target="1wR2ykt7FUWzchbB2Hr0-3" edge="1">
          <mxGeometry relative="1" as="geometry"/>
        </mxCell>
        <mxCell id="1wR2ykt7FUWzchbB2Hr0-1" value="系统调用" style="rounded=0;whiteSpace=wrap;html=1;strokeWidth=2;" parent="1" vertex="1">
          <mxGeometry x="120" y="40" width="100" height="40" as="geometry"/>
        </mxCell>
        <mxCell id="1wR2ykt7FUWzchbB2Hr0-2" value="iptables命令" style="rounded=0;whiteSpace=wrap;html=1;strokeWidth=2;" parent="1" vertex="1">
          <mxGeometry x="281" y="40" width="100" height="40" as="geometry"/>
        </mxCell>
        <mxCell id="1wR2ykt7FUWzchbB2Hr0-3" value="内核接口" style="rounded=0;whiteSpace=wrap;html=1;strokeWidth=2;" parent="1" vertex="1">
          <mxGeometry x="120" y="160" width="300" height="40" as="geometry"/>
        </mxCell>
        <mxCell id="1wR2ykt7FUWzchbB2Hr0-28" value="" style="edgeStyle=orthogonalEdgeStyle;rounded=0;orthogonalLoop=1;jettySize=auto;html=1;startArrow=classic;startFill=1;strokeWidth=2;" parent="1" source="1wR2ykt7FUWzchbB2Hr0-4" target="1wR2ykt7FUWzchbB2Hr0-5" edge="1">
          <mxGeometry relative="1" as="geometry"/>
        </mxCell>
        <mxCell id="1wR2ykt7FUWzchbB2Hr0-33" style="edgeStyle=orthogonalEdgeStyle;rounded=0;orthogonalLoop=1;jettySize=auto;html=1;exitX=0.5;exitY=0;exitDx=0;exitDy=0;entryX=0.167;entryY=0.975;entryDx=0;entryDy=0;entryPerimeter=0;startArrow=classic;startFill=1;strokeWidth=2;" parent="1" source="1wR2ykt7FUWzchbB2Hr0-4" target="1wR2ykt7FUWzchbB2Hr0-3" edge="1">
          <mxGeometry relative="1" as="geometry"/>
        </mxCell>
        <mxCell id="1wR2ykt7FUWzchbB2Hr0-4" value="传输层（TCP/UDP）" style="rounded=0;whiteSpace=wrap;html=1;strokeWidth=2;" parent="1" vertex="1">
          <mxGeometry x="120" y="240" width="100" height="40" as="geometry"/>
        </mxCell>
        <mxCell id="1wR2ykt7FUWzchbB2Hr0-27" value="" style="edgeStyle=orthogonalEdgeStyle;rounded=0;orthogonalLoop=1;jettySize=auto;html=1;startArrow=classic;startFill=1;strokeWidth=2;" parent="1" source="1wR2ykt7FUWzchbB2Hr0-5" target="1wR2ykt7FUWzchbB2Hr0-6" edge="1">
          <mxGeometry relative="1" as="geometry"/>
        </mxCell>
        <mxCell id="1wR2ykt7FUWzchbB2Hr0-5" value="网络层（IP）" style="rounded=0;whiteSpace=wrap;html=1;strokeWidth=2;" parent="1" vertex="1">
          <mxGeometry x="120" y="320" width="100" height="40" as="geometry"/>
        </mxCell>
        <mxCell id="1wR2ykt7FUWzchbB2Hr0-26" style="edgeStyle=orthogonalEdgeStyle;rounded=0;orthogonalLoop=1;jettySize=auto;html=1;exitX=0.5;exitY=1;exitDx=0;exitDy=0;entryX=0.5;entryY=0;entryDx=0;entryDy=0;startArrow=classic;startFill=1;strokeWidth=2;" parent="1" source="1wR2ykt7FUWzchbB2Hr0-6" target="1wR2ykt7FUWzchbB2Hr0-7" edge="1">
          <mxGeometry relative="1" as="geometry"/>
        </mxCell>
        <mxCell id="1wR2ykt7FUWzchbB2Hr0-6" value="网络接口层" style="rounded=0;whiteSpace=wrap;html=1;strokeWidth=2;" parent="1" vertex="1">
          <mxGeometry x="120" y="400" width="100" height="40" as="geometry"/>
        </mxCell>
        <mxCell id="1wR2ykt7FUWzchbB2Hr0-7" value="设备驱动" style="rounded=0;whiteSpace=wrap;html=1;strokeWidth=2;" parent="1" vertex="1">
          <mxGeometry x="120" y="480" width="100" height="40" as="geometry"/>
        </mxCell>
        <mxCell id="1wR2ykt7FUWzchbB2Hr0-10" value="" style="endArrow=classic;html=1;entryX=0.75;entryY=1;entryDx=0;entryDy=0;dashed=1;strokeWidth=2;" parent="1" target="1wR2ykt7FUWzchbB2Hr0-2" edge="1">
          <mxGeometry width="50" height="50" relative="1" as="geometry">
            <mxPoint x="356" y="159" as="sourcePoint"/>
            <mxPoint x="371" y="100" as="targetPoint"/>
          </mxGeometry>
        </mxCell>
        <mxCell id="1wR2ykt7FUWzchbB2Hr0-12" value="" style="endArrow=classic;html=1;dashed=1;strokeWidth=2;" parent="1" edge="1">
          <mxGeometry width="50" height="50" relative="1" as="geometry">
            <mxPoint x="311" y="80" as="sourcePoint"/>
            <mxPoint x="311" y="162" as="targetPoint"/>
          </mxGeometry>
        </mxCell>
        <mxCell id="1wR2ykt7FUWzchbB2Hr0-34" style="edgeStyle=orthogonalEdgeStyle;rounded=0;orthogonalLoop=1;jettySize=auto;html=1;exitX=0.5;exitY=0;exitDx=0;exitDy=0;entryX=0.7;entryY=1;entryDx=0;entryDy=0;entryPerimeter=0;startArrow=classic;startFill=1;strokeWidth=2;" parent="1" source="1wR2ykt7FUWzchbB2Hr0-14" target="1wR2ykt7FUWzchbB2Hr0-3" edge="1">
          <mxGeometry relative="1" as="geometry"/>
        </mxCell>
        <mxCell id="1wR2ykt7FUWzchbB2Hr0-14" value="iptables&lt;br&gt;内核模块" style="rounded=0;whiteSpace=wrap;html=1;strokeWidth=2;" parent="1" vertex="1">
          <mxGeometry x="280" y="240" width="100" height="40" as="geometry"/>
        </mxCell>
        <mxCell id="1wR2ykt7FUWzchbB2Hr0-30" value="" style="edgeStyle=orthogonalEdgeStyle;rounded=0;orthogonalLoop=1;jettySize=auto;html=1;startArrow=classic;startFill=1;strokeWidth=2;" parent="1" source="1wR2ykt7FUWzchbB2Hr0-15" target="1wR2ykt7FUWzchbB2Hr0-14" edge="1">
          <mxGeometry relative="1" as="geometry"/>
        </mxCell>
        <mxCell id="1wR2ykt7FUWzchbB2Hr0-15" value="Netfilter" style="rounded=0;whiteSpace=wrap;html=1;strokeWidth=2;" parent="1" vertex="1">
          <mxGeometry x="280" y="320" width="100" height="40" as="geometry"/>
        </mxCell>
        <mxCell id="1wR2ykt7FUWzchbB2Hr0-16" value="hook" style="rounded=0;whiteSpace=wrap;html=1;dashed=1;strokeWidth=2;" parent="1" vertex="1">
          <mxGeometry x="220" y="320" width="60" height="40" as="geometry"/>
        </mxCell>
        <mxCell id="1wR2ykt7FUWzchbB2Hr0-19" value="&lt;font style=&quot;font-size: 18px&quot;&gt;用户层&lt;/font&gt;" style="text;html=1;strokeColor=none;fillColor=none;align=center;verticalAlign=middle;whiteSpace=wrap;rounded=0;dashed=1;strokeWidth=2;" parent="1" vertex="1">
          <mxGeometry x="450" y="70" width="70" height="20" as="geometry"/>
        </mxCell>
        <mxCell id="1wR2ykt7FUWzchbB2Hr0-20" value="&lt;font style=&quot;font-size: 18px&quot;&gt;内核层&lt;/font&gt;" style="text;html=1;strokeColor=none;fillColor=none;align=center;verticalAlign=middle;whiteSpace=wrap;rounded=0;dashed=1;strokeWidth=2;" parent="1" vertex="1">
          <mxGeometry x="450" y="150" width="70" height="20" as="geometry"/>
        </mxCell>
        <mxCell id="1wR2ykt7FUWzchbB2Hr0-21" value="getsockopt" style="text;html=1;strokeColor=none;fillColor=none;align=center;verticalAlign=middle;whiteSpace=wrap;rounded=0;dashed=1;strokeWidth=2;" parent="1" vertex="1">
          <mxGeometry x="370" y="130" width="40" height="20" as="geometry"/>
        </mxCell>
        <mxCell id="1wR2ykt7FUWzchbB2Hr0-22" value="setsockopt" style="text;html=1;strokeColor=none;fillColor=none;align=center;verticalAlign=middle;whiteSpace=wrap;rounded=0;dashed=1;strokeWidth=2;" parent="1" vertex="1">
          <mxGeometry x="259" y="90" width="40" height="20" as="geometry"/>
        </mxCell>
        <mxCell id="1wR2ykt7FUWzchbB2Hr0-23" value="" style="endArrow=none;html=1;entryX=0.959;entryY=0.182;entryDx=0;entryDy=0;entryPerimeter=0;strokeWidth=2;" parent="1" edge="1">
          <mxGeometry width="50" height="50" relative="1" as="geometry">
            <mxPoint x="105" y="459.5" as="sourcePoint"/>
            <mxPoint x="524.9099999999999" y="459.5" as="targetPoint"/>
          </mxGeometry>
        </mxCell>
        <mxCell id="1wR2ykt7FUWzchbB2Hr0-24" value="" style="endArrow=none;html=1;entryX=0.959;entryY=0.182;entryDx=0;entryDy=0;entryPerimeter=0;strokeWidth=2;" parent="1" edge="1">
          <mxGeometry width="50" height="50" relative="1" as="geometry">
            <mxPoint x="105" y="119.5" as="sourcePoint"/>
            <mxPoint x="524.9099999999999" y="119.5" as="targetPoint"/>
          </mxGeometry>
        </mxCell>
        <mxCell id="1wR2ykt7FUWzchbB2Hr0-25" value="&lt;font style=&quot;font-size: 18px&quot;&gt;驱动层&lt;/font&gt;" style="text;html=1;strokeColor=none;fillColor=none;align=center;verticalAlign=middle;whiteSpace=wrap;rounded=0;dashed=1;strokeWidth=2;" parent="1" vertex="1">
          <mxGeometry x="450" y="480" width="70" height="20" as="geometry"/>
        </mxCell>
        <mxCell id="1wR2ykt7FUWzchbB2Hr0-35" value="&lt;font color=&quot;#ff8000&quot;&gt;&lt;b&gt;公众号@Linux云计算网络&lt;/b&gt;&lt;/font&gt;" style="text;html=1;strokeColor=none;fillColor=none;align=center;verticalAlign=middle;whiteSpace=wrap;rounded=0;shadow=0;glass=0;comic=0;" parent="1" vertex="1">
          <mxGeometry x="400" y="310" width="150" height="20" as="geometry"/>
        </mxCell>
        <mxCell id="1wR2ykt7FUWzchbB2Hr0-36" value="&lt;font color=&quot;#ff8000&quot;&gt;&lt;b&gt;公众号@Linux云计算网络&lt;br&gt;&lt;br&gt;需要原图加公众号后台回复&lt;br&gt;&lt;/b&gt;&lt;/font&gt;" style="text;html=1;strokeColor=none;fillColor=none;align=center;verticalAlign=middle;whiteSpace=wrap;rounded=0;shadow=0;glass=0;comic=0;" parent="1" vertex="1">
          <mxGeometry x="295" y="400" width="150" height="20" as="geometry"/>
        </mxCell>
      </root>
    </mxGraphModel>
  </diagram>
</mxfile>
